<svg version="1.1" viewBox="0 0 96 96" xmlns="http://www.w3.org/2000/svg" xmlns:xlink="http://www.w3.org/1999/xlink" id="Icons_BarGraphUpwardTrend_LTR" overflow="hidden"><path d=" M 20 13 L 14 13 L 14 83 L 83 83 L 83 77 L 20 77 L 20 13 Z" fill="#004B78"/><rect x="68" y="13" width="15" height="58" fill="#004B78" transform="matrix(-1,-1.22465e-16,1.22465e-16,-1,151,84)"/><rect x="47" y="33" width="15" height="38" fill="#004B78" transform="matrix(-1,-1.22465e-16,1.22465e-16,-1,109,104)"/><rect x="26" y="51" width="15" height="20" fill="#004B78" transform="matrix(-1,-1.22465e-16,1.22465e-16,-1,67,122)"/><path d=" M 58 26.74 L 58 13 L 44.26 13 L 49.72 18.46 L 25.59 42.59 L 28.41 45.41 L 52.54 21.29 L 58 26.74 Z" fill="#004B78"/></svg>