<svg version="1.1" viewBox="0 0 96 96" xmlns="http://www.w3.org/2000/svg" xmlns:xlink="http://www.w3.org/1999/xlink" id="Icons_Podium" overflow="hidden"><g><path d=" M 80 73.5 L 80 45.4 L 82.1 54.1 C 82.3 54.9 83.1 55.6 84 55.6 C 85.1 55.6 86 54.7 86 53.6 C 86 53.4 85.9 53.2 85.9 53.1 L 83.1 41.2 C 83 40.8 82.8 40.4 82.5 40.1 C 81.3 39.1 79.9 38.4 78.3 37.9 C 77.2 37.7 76.1 37.5 75 37.5 C 73.9 37.5 72.8 37.7 71.7 38 C 70.1 38.4 68.7 39.2 67.5 40.2 C 67.2 40.5 67 40.9 66.9 41.3 L 64.1 53.2 C 64.1 53.3 64 53.5 64 53.7 C 64 54.8 64.9 55.7 66 55.7 C 66.9 55.7 67.7 55 67.9 54.2 L 70 45.5 L 70 73.5 L 62 73.5 L 62 57.5 L 53 57.5 L 53 41.5 L 53 28.3 L 61.7 13.5 C 62.3 12.5 61.9 11.3 61 10.8 C 60 10.2 58.8 10.6 58.3 11.5 L 52 22.2 C 51.8 22.1 51.6 22 51.3 22 C 50.2 21.7 49.1 21.5 48 21.5 L 48 21.5 C 46.9 21.5 45.8 21.7 44.7 22 C 44.5 22.1 44.3 22.1 44 22.2 L 37.7 11.5 C 37.1 10.5 35.9 10.2 35 10.8 C 34 11.4 33.7 12.6 34.3 13.5 L 43 28.3 L 43 41.5 L 43 57.5 L 34 57.5 L 34 65.5 L 27 65.5 L 27 37.4 L 29.1 46.1 C 29.3 46.9 30.1 47.6 31 47.6 C 32.1 47.6 33 46.7 33 45.6 C 33 45.4 32.9 45.2 32.9 45.1 L 30.1 33.2 C 30 32.8 29.8 32.4 29.5 32.1 C 28.3 31.1 26.9 30.4 25.3 29.9 C 24.2 29.7 23.1 29.5 22 29.5 C 20.9 29.5 19.8 29.7 18.7 30 C 17.1 30.4 15.7 31.2 14.5 32.2 C 14.2 32.5 14 32.9 13.9 33.3 L 11.1 45.2 C 11.1 45.3 11 45.5 11 45.7 C 11 46.8 11.9 47.7 13 47.7 C 13.9 47.7 14.7 47 14.9 46.2 L 17 37.5 L 17 65.5 L 8 65.5 L 8 85.5 L 88 85.5 L 88 73.5 L 80 73.5 Z M 23 65.5 L 21 65.5 L 21 47.5 L 23 47.5 L 23 65.5 Z M 49 57.5 L 47 57.5 L 47 39.5 L 49 39.5 L 49 57.5 Z M 76 73.5 L 74 73.5 L 74 55.5 L 76 55.5 L 76 73.5 Z" fill="#FADC3C"/><circle cx="22" cy="24.5" r="4" fill="#FADC3C"/><circle cx="75" cy="32.5" r="4" fill="#FADC3C"/><circle cx="48" cy="16.5" r="4" fill="#FADC3C"/></g></svg>